<?xml version="1.0" encoding="utf-8"?>
<!-- Generator: Adobe Illustrator 19.1.0, SVG Export Plug-In . SVG Version: 6.00 Build 0)  -->
<svg version="1.1" id="Layer_1" xmlns="http://www.w3.org/2000/svg" xmlns:xlink="http://www.w3.org/1999/xlink" x="0px" y="0px"
	 viewBox="-15 46.9 928.5 468.1" style="enable-background:new -15 46.9 928.5 468.1;" xml:space="preserve">
<style type="text/css">
	.st0{fill:#2F2C2D;}
	.st1{fill:#302E2F;}
	.st2{fill:#2F2D2E;}
	.st3{fill:#2F2D2F;}
	.st4{fill:#312F30;}
	.st5{fill:#3A393B;}
	.st6{fill:#363536;}
	.st7{fill:#333133;}
	.st8{fill:#323031;}
	.st9{fill:#3C3B3D;}
	.st10{clip-path:url(#SVGID_2_);fill:#64297C;}
	.st11{clip-path:url(#SVGID_4_);fill:#64297C;}
	.st12{clip-path:url(#SVGID_6_);fill:#64297C;}
	.st13{clip-path:url(#SVGID_8_);fill:#64297C;}
	.st14{clip-path:url(#SVGID_10_);fill:#64297C;}
	.st15{clip-path:url(#SVGID_12_);fill:#64297C;}
	.st16{clip-path:url(#SVGID_14_);fill:#64297C;}
	.st17{clip-path:url(#SVGID_16_);fill:#64297C;}
	.st18{clip-path:url(#SVGID_18_);fill:#64297C;}
	.st19{opacity:0.75;}
</style>
<g id="Layer_3">
	<path class="st0" d="M649.2,307.9c2.5-1.6,4.8-3.4,7.7-3.8c3.4-0.4,6.5,0.1,8.6,3c1.2,1.7,2,1.2,3.2,0.2c3.1-2.4,6.5-3.7,10.5-3.2
		s7,3.1,7.2,7c0.3,6,0.2,12.1,0.2,18.2c0,0.8,0,1.7-1.1,1.7c-1.4,0-1.1-1.2-1.1-2c0-4.8,0-9.6,0-14.4c0-4.9-1.4-7.2-4.8-8.1
		c-3.6-0.9-10.5,1.7-11.9,4.6c-0.4,0.8-0.3,1.8-0.3,2.7c0,4.9,0,9.8,0,14.8c0,0.9,0.5,2.4-1,2.5c-1.9,0.1-1.2-1.6-1.2-2.6
		c-0.1-4.8,0-9.6-0.1-14.4c-0.1-6.8-4.7-9.6-11-6.7c-3.7,1.7-6.1,4-5.6,8.7c0.4,4.2,0.1,8.5,0.1,12.7c0,1.1,0.3,2.5-1.5,2.4
		c-1.6-0.1-1.1-1.5-1.1-2.4c0-6.9-0.1-13.7,0-20.6c0-1.1-1-3.1,1.1-3.3C649.6,304.5,648.2,306.9,649.2,307.9"/>
	<path class="st1" d="M634.2,317.4c-5,4.6-10.4,6.5-16.7,5.1c-5.1-1.2-7.9-4.3-8.5-9.5c-0.2-2.2-0.1-4.3-0.1-6.5
		c0-0.8-0.1-1.7,1.1-1.8c1.2-0.1,1.6,0.6,1.6,1.7c0,1.9,0,3.9,0.1,5.8c0.2,4.4,2.3,6.9,6.6,8s8.1,0.3,11.7-2.2
		c3.1-2.1,5.3-4.7,4.6-8.8c-0.2-1.1,0-2.3,0-3.4c0-0.8,0.6-1.1,1.4-1.1c0.7,0,1.1,0.4,1,1.1c-0.1,6.2,0.8,12.4-0.5,18.4
		c-0.9,4.2-4.6,5.8-8.4,6.7c-5.6,1.4-11.3,1.1-17-0.3c-1.2-0.3-2.8-0.5-2.3-2.3c0.6-1.8,1.8-0.4,2.7-0.2c4.8,1.3,9.6,1.9,14.5,0.9
		C632.8,327.7,635.1,324.5,634.2,317.4"/>
	<path class="st2" d="M125.6,318c6.5,0,6.5,0,6.5,6.3c0,5.8,0,5.8-6,6.9c-5.1,0.9-10.2,0.9-15.2-0.8c-5.9-2.1-9-6.4-9-12.4
		c0-5.9,3.1-10.4,8.9-12.4c6.3-2.2,12.6-1.8,18.8,0.3c1.4,0.5,2.5,1.3,1.7,2.7c-0.7,1.4-1.8-0.1-2.5-0.4c-5.1-2.3-10.4-2.4-15.7-1.1
		c-5.7,1.4-8.6,5.4-8.5,11.2c0.1,5.2,3.5,9.2,9.1,10.5c4.7,1.1,9.3,0.7,14-0.1c1.4-0.2,2.1-0.9,2.2-2.5c0.4-6.1,0.5-6.1-5.5-6.1
		c-1.4,0-2.7,0-4.1-0.1c-0.6,0-1.1-0.4-1.1-1.1s0.4-1,1.1-1C122,318,123.8,318,125.6,318"/>
	<path class="st2" d="M243.6,317.2c-4.1,3.7-8.3,5.8-13.5,5.6c-7.2-0.2-11.3-3.8-11.9-11c-0.2-1.9,0-3.9-0.1-5.8
		c0-1,0.6-1.4,1.5-1.4c0.9,0.1,1.1,0.7,1.1,1.4c0,1.9,0,3.9,0,5.8c0.2,4.7,2.4,7.3,7.1,8.4c5.6,1.3,11.7-1.2,15.1-5.8
		c1.6-2.2,0.7-4.6,1-7c0.1-1-0.6-2.7,1.1-2.7c1.8-0.1,1.2,1.6,1.2,2.6c0.1,4.6,0,9.2,0,13.7c0.1,4-1.8,6.8-5.3,8.5
		c-7,3.2-14.2,2.6-21.5,0.8c-1.1-0.3-1.6-0.9-1.4-2c0.3-1.5,1.4-0.7,2.2-0.5c5,1.7,10,2.2,15.2,1.1
		C242,327.7,244.4,324.5,243.6,317.2"/>
	<path class="st3" d="M734.5,309.1c5.5-3.4,10.8-5.6,16.9-4.9c5.5,0.6,8.5,3.7,8.7,9.1c0.1,5.1,0.1,10.3,0,15.4
		c0,0.9,0.5,2.3-1.1,2.4c-1.9,0.1-1.4-1.4-1.4-2.5c0-5,0-10.1-0.1-15.1c-0.1-4.8-2.3-7-7.2-7.2c-2.5-0.1-5,0.3-7.4,1.1
		c-7.8,2.6-8.6,3.7-8.6,11.8c0,3.3,0,6.6,0,9.9c0,0.9,0.1,2-1.3,1.9c-1.2-0.1-1-1.1-1-1.8c0-7.4,0-14.9,0-22.3c0-0.8-0.4-2.1,1-2.2
		c1.6-0.2,1.3,1.2,1.4,2.2C734.3,307.4,734.3,308,734.5,309.1"/>
	<path class="st4" d="M316.5,319c-2.9,0-5.7,0.1-8.6,0c-2-0.1-2.9,0.6-2.8,2.7c0.1,2.5,0,5,0,7.5c0,0.9,0,1.9-1.4,1.9
		s-1.2-1.1-1.2-1.9c0-5.5-0.1-11,0.1-16.5c0.1-4.1,2.9-6.8,7.5-7.6c5.3-0.9,10.7-0.6,16.1-0.6c1,0,1.9,0.1,1.8,1.5
		c-0.1,1.2-1.1,0.9-1.9,1c-4.3,0-8.7-0.1-13,0.1c-5.6,0.3-8,2.7-8,7.3c0,1.8,0.7,2.3,2.4,2.3c5.8-0.1,11.7-0.1,17.5,0
		c1,0,2.7-0.7,2.7,1.1c0,1.7-1.7,1.1-2.7,1.2C322.2,319,319.3,319,316.5,319"/>
	<path class="st5" d="M778.4,304.5c3.8,0,7.5,0,11.3,0c0.9,0,2-0.2,1.9,1.3c0,1.4-1.2,1.1-2,1.1c-2.3,0-4.6,0.2-6.8,0
		c-2.5-0.2-3.1,0.8-3,3.1c0.1,6.1,0.1,12.1,0,18.2c0,1.1,0.6,2.9-1.4,2.8c-1.8-0.1-1-1.7-1-2.7c-0.1-6.2-0.1-12.3,0-18.5
		c0-2.2-0.5-3.1-2.8-2.9c-2.2,0.2-4.3,0.1-6.5,0c-1,0-2.7,0.6-2.8-1.1c0-1.9,1.8-1.3,2.9-1.3C771.6,304.5,775,304.5,778.4,304.5"/>
	<path class="st6" d="M200.8,304.5c3.5,0,7.1,0,10.6,0c0.9,0,2.3-0.5,2.4,1.1c0.1,1.7-1.4,1.2-2.3,1.2c-2.2,0.1-4.4,0.2-6.5,0
		c-2.5-0.2-3.4,0.6-3.3,3.2c0.2,6.1,0.1,12.1,0,18.2c0,1,0.6,2.7-1.1,2.7c-1.8,0.1-1.2-1.6-1.2-2.6c-0.1-5.8-0.3-11.7,0.1-17.5
		c0.2-3.5-1.1-4.4-4.2-4c-2,0.2-4.1,0.1-6.2,0c-0.8,0-1.8,0.1-1.8-1c-0.1-1.4,1-1.3,1.9-1.3C193,304.5,196.9,304.5,200.8,304.5"/>
	<path class="st6" d="M344.7,304.5c3.7,0,7.3,0,11,0c0.9,0,2.4-0.3,2.3,1.3c-0.1,1.6-1.5,1.1-2.4,1.1c-2.4,0.1-4.8,0.1-7.2,0
		c-1.9-0.1-2.6,0.6-2.5,2.6c0.1,6.3,0.1,12.6,0,18.9c0,1,0.7,2.7-1.1,2.7c-1.8,0-1.2-1.7-1.2-2.6c-0.1-6.1-0.1-12.1,0-18.2
		c0.1-2.5-0.5-3.6-3.2-3.3c-2.3,0.2-4.6,0.1-6.9,0c-0.8,0-2,0.3-2-1.1s1.1-1.2,1.9-1.3C337.2,304.5,340.9,304.5,344.7,304.5"/>
	<path class="st7" d="M151.3,315.3c0-2.5-0.1-5,0-7.6c0.1-1.1-0.9-3,1.1-3c2.1,0,1.3,2,1.3,3.2c0.1,4.3,0,8.7,0.1,13
		c0.1,6.2,1.4,7.6,7.6,7.9c3.7,0.1,7.3,0,11,0.1c0.8,0,2-0.4,2.1,1c0.1,1.5-1.1,1.2-1.9,1.2c-4.7,0-9.4,0.1-14.1-0.2
		c-4.8-0.3-7.1-2.9-7.2-7.8C151.3,320.6,151.4,317.9,151.3,315.3L151.3,315.3z"/>
	<path class="st8" d="M545.1,315c0,2.3,0,4.6,0,6.8c0,4.9,1.2,6.4,6.1,6.9c4.1,0.4,8.2,0.2,12.3,0.3c0.9,0,2.3-0.5,2.2,1.2
		c-0.1,1.3-1.3,1-2.2,1c-4.5,0-8.9,0.1-13.4-0.1c-4.8-0.2-7.2-2.3-7.5-7.1c-0.3-5.8-0.2-11.6-0.2-17.4c0-1,0.3-1.9,1.5-1.8
		s1,1,1,1.8C545.1,309.3,545.1,312.1,545.1,315"/>
	<path class="st1" d="M401.2,309.5c3.8-2.9,7.3-5.2,11.8-5.5c1-0.1,2.1-0.1,3.1,0c0.9,0.1,2.4-0.2,2.3,1.3c-0.1,1.6-1.6,0.9-2.4,0.9
		c-2.8-0.1-5.5,0-8,1.2c-4.4,2.1-7.6,4.7-6.9,10.4c0.5,3.6,0.1,7.3,0.1,11c0,0.9,0.3,2.3-1.4,2.2c-1.4-0.1-1-1.3-1-2.2
		c0-7.3,0-14.6,0-21.9c0-0.9-0.5-2.3,1.2-2.2c1.3,0.1,1,1.2,1.1,2.1C401.1,307.5,401.1,308.2,401.2,309.5"/>
	<path class="st9" d="M182.1,317.8c0,3.8,0,7.5,0,11.3c0,1.1-0.1,2.2-1.6,2c-1.4-0.1-1-1.3-1-2.1c0-7.4,0-14.8,0-22.3
		c0-0.8-0.3-2,1.1-2.1c1.5-0.1,1.5,1.1,1.5,2.2C182.1,310.4,182.1,314.1,182.1,317.8"/>
	<path class="st5" d="M142.4,318.1c0,3.5,0,7.1,0,10.6c0,0.9,0.5,2.3-1.2,2.3c-1.6,0.1-1.5-1.1-1.5-2.1c0-7.4,0-14.9,0-22.3
		c0-0.9,0-2,1.2-2c1.6-0.1,1.4,1.2,1.4,2.2C142.4,310.6,142.4,314.4,142.4,318.1"/>
	<path class="st2" d="M477.1,318.7c3.9,0.1,7.8,0,11.7,0c4,0,8,0,12,0c1.4,0,2.5-0.1,2.2-2c-0.6-4.8-2.6-8.8-7.3-10.8
		c-5.1-2.2-10.2-2.2-15.3-0.2c-5.4,2.2-8.3,6.8-8.2,12.6c0.1,5.6,3.1,9.9,8.6,11.9c6.1,2.3,12.3,1.7,18.5,0c1-0.3,1.8-0.8,1.5-1.9
		c-0.3-1.5-1.4-0.7-2.2-0.5c-4.6,1.5-9.3,2.1-14.2,1c-4.4-1-7.9-3-9.3-7.6C474.6,319.7,474.9,318.6,477.1,318.7 M475.4,313.8
		c0.3-0.7,0.6-1.5,1.1-2.1c3.1-4.3,7.5-5.4,12.4-5.2c4.5,0.2,8.6,1.7,10.7,6.2c1.6,3.3,1.2,3.9-2.4,3.9c-3.2,0-6.4,0-9.6,0
		c-3.4,0-6.9-0.1-10.3,0C474.8,316.8,474.5,315.8,475.4,313.8"/>
	<path class="st2" d="M365.8,318.7c3.9,0.2,7.8,0.1,11.7,0.1c2.7,0,5.5,0,8.2,0c6.4,0,7.3-1.5,4.3-7.4c-1.1-2.2-2.7-4-4.9-5
		c-6.2-3-12.4-2.9-18.3,0.6c-4.7,2.8-6.4,7.2-5.9,12.6c0.4,5.1,3.1,8.4,7.7,10.4c6.3,2.7,12.7,2.1,19.1,0.5c1.2-0.3,2-0.9,1.6-2.1
		c-0.5-1.4-1.5-0.4-2.2-0.2c-5.5,1.7-11,2.1-16.5,0.2c-3.3-1.2-5.7-3.3-6.8-6.7C363.1,319.7,363.2,318.6,365.8,318.7 M363.8,314.2
		c0.6-1.7,1.6-3.3,3-4.5c4.6-4.1,13.7-4.4,18.5-0.6c1.3,1,2.3,2.3,2.9,3.8c1.5,3.4,1.2,3.7-2.5,3.8c-3.2,0-6.4,0-9.6,0
		c-3.5,0-7.1-0.1-10.6,0C363.3,316.8,363.2,315.8,363.8,314.2"/>
	<path class="st0" d="M698.9,318.7c3.9,0.2,7.8,0.1,11.7,0h8.6c6,0,6.9-1.5,4.2-7.1c-1.1-2.2-2.6-4.1-4.8-5.2
		c-6.6-3.3-13.3-3.3-19.5,1.1c-7.6,5.3-6.9,17.1,1.1,21.6c6.7,3.8,13.9,3,21,1.2c1.1-0.3,1.6-1.1,1.2-2.1c-0.5-1.5-1.5-0.4-2.2-0.2
		c-4.7,1.4-9.4,2-14.2,0.9c-4.2-1-7.6-3-9.1-7.4C696.3,319.7,696.3,318.6,698.9,318.7 M696.9,314.3c0.6-1.6,1.5-3.1,2.8-4.3
		c4.7-4.4,14.2-4.7,19.1-0.6c1.1,0.9,1.9,2,2.5,3.2c1.7,3.6,1.4,4-2.4,4c-3.1,0-6.2,0-9.3,0c-3.7,0-7.3-0.1-11,0
		C696.5,316.8,696.3,315.9,696.9,314.3"/>
	<path class="st3" d="M455.4,304.9c-5-0.5-10.1-0.2-15.1-0.4c-1.9-0.1-2.6,0.6-2.5,2.6c0.1,3.5,0,7.1,0,10.6c0,3.8,0,7.6,0,11.3
		c0,1.4,0.3,2.2,1.9,2.1c5.4-0.1,10.8,0.2,16.1-0.3c7.6-0.7,11.1-5.5,11-13.9C466.7,310,462.6,305.7,455.4,304.9 M456.3,328.5
		c-4.8,1-9.6,0.3-14.4,0.5c-1.5,0.1-1.6-0.9-1.6-2v-8.9c0-3,0-6,0-8.9c0-1.6,0.6-2.2,2.2-2.2c4.2,0.1,8.5-0.1,12.7,0.2
		c5.8,0.5,8.8,4,9.1,10C464.6,323.6,462,327.2,456.3,328.5"/>
	<path class="st3" d="M594.4,305.6c-2.7-1-5.5-1.5-8.4-1.3c-1.3,0-2.5-0.1-3.8,0c-7.2,0.7-12.5,5.3-13.2,11.4
		c-0.9,7.6,2.4,12.8,9.4,15c5.4,1.7,10.8,1.6,16.1-0.5c5.4-2,8.2-6.5,8.1-12.6C602.7,311.9,599.8,307.7,594.4,305.6 M592,328.8
		c-4.1,1-8.2,1-12.2,0c-5.3-1.4-8.2-5.3-8.2-10.8s2.8-9.5,8.1-10.9c2.1-0.6,4.2-1.1,6.3-0.7c2.2-0.3,4.2,0.2,6.2,0.7
		c5.2,1.4,8,5.3,8,10.9C600.1,323.6,597.3,327.5,592,328.8"/>
	<path class="st4" d="M528.2,304.9c-5.2-0.6-10.5-0.2-15.7-0.4c-2-0.1-2.6,0.7-2.5,2.6c0.1,3.5,0,7.1,0,10.6c0,3.8,0,7.5,0,11.3
		c0,0.8-0.3,2,1.1,2.1c1.6,0.1,1.5-1.1,1.5-2.1c0-1.8,0.1-3.7,0-5.5c-0.1-1.9,0.6-2.6,2.5-2.6c4.2,0.1,8.4,0.1,12.7-0.2
		c5.2-0.3,8.2-3.2,8.3-7.7C536.2,308.3,533.5,305.6,528.2,304.9 M529.3,318.2c-5.1,1.1-10.3,0.3-15.4,0.5c-0.8,0-1.2-0.5-1.2-1.3
		c0-0.5,0-0.9,0-1.4c-0.3-9-0.3-9,9.1-9c2.2,0.2,4.8-0.2,7.4,0.4c2.8,0.7,4.3,2.3,4.2,5.3C533.5,315.7,532.2,317.6,529.3,318.2"/>
	<path class="st2" d="M85.3,305.9c-1.1-2-3.1-2-4.2,0c-4.1,7.7-8.2,15.6-12.2,23.4c-0.3,0.6-1,1.2,0,1.7c0.6,0.3,1.4,0.3,1.9-0.3
		c0.5-0.6,0.9-1.3,1.1-2.1c1.2-3.5,3.3-5,7.2-4.5c2.6,0.4,5.3,0.4,7.9,0c4-0.6,6.5,0.8,7.8,4.6c0.5,1.5,1.3,3.1,3.7,2
		C94,322.5,89.7,314.2,85.3,305.9 M77,322c-1.6,0-1.1-1-0.7-1.9c2.2-4.2,4.3-8.3,6.8-13.1c2.7,5.2,5.1,9.8,7.8,15
		C86,322,81.5,322,77,322"/>
	<path class="st2" d="M284.1,305.9c-1.1-2-3-2.1-4-0.2c-4.5,8.3-8.8,16.7-13.2,25.1c1.8,0.8,2.9,0.3,3.3-1.2c1.3-5.2,5-6,9.6-5.4
		c2,0.2,4.2,0.3,6.2,0c3.9-0.6,6.2,0.9,7.5,4.6c0.5,1.5,1.2,3.2,3.7,2C292.8,322.4,288.5,314.1,284.1,305.9 M287.5,322.1
		c-4.2-0.1-8.4,0-13.3,0c2.6-5,5-9.7,7.8-15c2.5,4.8,4.6,8.8,6.8,12.8C289.5,321.3,289.5,322.1,287.5,322.1"/>
	<g>
		<g>
			<defs>
				<rect id="SVGID_1_" x="38" y="225.1" width="784.4" height="61.5"/>
			</defs>
			<clipPath id="SVGID_2_">
				<use xlink:href="#SVGID_1_"  style="overflow:visible;"/>
			</clipPath>
			<path class="st10" d="M265.3,284.8c-0.1-2.1-0.3-3.5-0.4-4.8c-5.8,1.7-11.4,3.7-17.2,4.9c-8,1.7-16.1,1.9-24-0.4
				c-9.2-2.7-13.2-8.7-12.2-17.8c0.5-5.3,3.7-8.8,8-11.3c7.5-4.2,15.9-5.5,24.3-6.4c7-0.8,13.9-1.3,21-2c0.7-3.9-1.3-6.3-4.4-7
				c-4.8-1.1-9.9-2.3-14.8-1.9c-9.5,0.7-18.9,2.5-28.8,3.9c0-3.1-0.1-7.1,0.1-11.2c0-0.6,1.1-1.4,1.9-1.6c15-3.2,30-5.5,45.2-1.3
				c3.8,1.1,7.6,3.2,10.8,5.5c3.5,2.5,5.6,6.4,5.6,10.9c0.1,12.7,0.1,25.3,0.1,38c0,0.9-1.2,2.4-1.9,2.5
				C274.3,285,269.9,284.8,265.3,284.8 M264.6,257.7c-9.4,1.2-18.7,2.3-27.9,3.7c-2.6,0.4-5.2,1.5-7.4,2.9c-3.8,2.4-3.2,6.8,0.9,8.4
				c1.2,0.5,2.5,0.7,3.7,0.9c8.9,1.2,17.4-0.4,25.6-4.2C265.6,266.6,265.9,265.8,264.6,257.7"/>
		</g>
		<g>
			<defs>
				<rect id="SVGID_3_" x="38" y="225.1" width="784.4" height="61.5"/>
			</defs>
			<clipPath id="SVGID_4_">
				<use xlink:href="#SVGID_3_"  style="overflow:visible;"/>
			</clipPath>
			<path class="st11" d="M192.1,262h-56.7c1,4.8,3.8,7.6,7.6,9.4c6,3,12.4,3.3,18.9,3.2c8.4-0.2,16.5-1.6,24.3-5
				c0.4-0.2,0.8-0.2,1.8-0.4c0,4,0.1,7.7-0.1,11.4c0,0.7-1.2,1.7-2,1.9c-15.1,4.3-30.4,5.8-45.7,1.2c-12.4-3.7-20.1-12.9-20.8-23.8
				c-0.9-14.4,5-25,17.7-30.6c12.1-5.4,24.5-5.6,36.9-1C187.2,233.4,194.4,247.4,192.1,262 M177.1,250.6c-0.6-5-3-8.4-7-10.2
				c-9.4-4.3-18.9-4.2-27.9,1.1c-3.3,2-5.9,4.7-6.8,9.1L177.1,250.6L177.1,250.6z"/>
		</g>
		<g>
			<defs>
				<rect id="SVGID_5_" x="38" y="225.1" width="784.4" height="61.5"/>
			</defs>
			<clipPath id="SVGID_6_">
				<use xlink:href="#SVGID_5_"  style="overflow:visible;"/>
			</clipPath>
			<path class="st12" d="M670.1,284.5v-57.2c1-0.1,2-0.3,3-0.3c12.7,0,25.3-0.1,38,0.2c4.2,0.1,8.4,1,12.4,2.1
				c10.3,3.1,16.7,11.2,17.3,21.9c0.2,4.1,0.4,8.3-0.4,12.2c-2.5,12.6-11.4,20.2-25.9,21c-14.3,0.7-28.6,0.3-42.9,0.4
				C671.2,284.8,670.7,284.6,670.1,284.5 M685.3,239.9c0,10.1-0.1,20.3,0.1,30.4c0,0.7,1.7,2.1,2.7,2.1c7.7,0,15.5,0.1,23.2-0.4
				c8.1-0.5,12.9-4.7,14-12.3c1.5-10.6-1.6-18.5-12.1-19.7C704.1,239.2,695,239.9,685.3,239.9"/>
		</g>
		<g>
			<defs>
				<rect id="SVGID_7_" x="38" y="225.1" width="784.4" height="61.5"/>
			</defs>
			<clipPath id="SVGID_8_">
				<use xlink:href="#SVGID_7_"  style="overflow:visible;"/>
			</clipPath>
			<path class="st13" d="M509.7,225.4c8.8,0.1,17.1,1.1,24.8,5.1c10,5.3,14.7,13.8,14.8,24.9c0.2,11.3-4.3,20.2-14.5,25.8
				c-8.8,4.8-18.5,5.7-28.3,5.3c-7.5-0.3-14.9-1.6-21.7-5.2c-10.2-5.5-14.9-14.3-14.8-25.6c0.1-11.2,4.9-19.8,15-25.1
				C492.9,226.4,501.3,225.5,509.7,225.4 M508.7,274.6c4-0.5,6.8-0.6,9.6-1.1c9.1-1.6,14.6-7.3,15.2-15.5
				c0.7-9.8-3.3-16.2-12.2-18.9c-8.4-2.5-16.9-2.5-25.1,0.9c-7,2.9-10.3,8.4-10.2,16.4c0.1,7.3,3.7,13.1,10.6,15.5
				C500.7,273.4,505.3,273.9,508.7,274.6"/>
		</g>
		<g>
			<defs>
				<rect id="SVGID_9_" x="38" y="225.1" width="784.4" height="61.5"/>
			</defs>
			<clipPath id="SVGID_10_">
				<use xlink:href="#SVGID_9_"  style="overflow:visible;"/>
			</clipPath>
			<path class="st14" d="M761.3,268.1c8.2,3.9,16.1,6.2,24.5,6.4c5.3,0.1,10.7-0.4,16-1.2c1.7-0.3,3.1-2.6,4.7-4
				c-1.5-1.5-2.7-3.8-4.4-4.3c-6.7-2-13.7-3.1-20.4-5.1c-5.2-1.6-10.6-3.4-15.1-6.3c-8-5.3-8.1-17.1,0-22.3c4.4-2.8,9.8-4.6,15-5.3
				c11.2-1.6,22.4-0.2,33.4,2.9c1.9,0.5,2.7,1.3,2.6,3.4c-0.2,3.4,0,6.7,0,9.4c-8.2-1.5-16.2-3.4-24.2-4.4
				c-4.4-0.5-9.1,0.5-13.6,1.2c-1.2,0.2-2.8,1.8-2.9,2.9c-0.1,1.1,1.4,2.9,2.5,3.2c6.3,1.9,12.7,3.2,18.9,5.1
				c5.4,1.6,10.7,3.3,15.8,5.7c5.4,2.6,8.6,7.2,8.3,13.5c-0.3,6.5-3.6,11-9.4,13.7c-8.2,3.9-17,4.4-25.8,3.8
				c-7.6-0.6-15.2-2.4-22.8-3.7c-2.3-0.4-3.4-1.5-3.2-4C761.5,275.4,761.3,272.1,761.3,268.1"/>
		</g>
		<g>
			<defs>
				<rect id="SVGID_11_" x="38" y="225.1" width="784.4" height="61.5"/>
			</defs>
			<clipPath id="SVGID_12_">
				<use xlink:href="#SVGID_11_"  style="overflow:visible;"/>
			</clipPath>
			<path class="st15" d="M38.4,268.1c8.1,4,16.1,6.3,24.5,6.4c5.3,0.1,10.7-0.3,16-1.2c1.7-0.3,4-2.3,4.5-4c0.8-2.6-1.9-3.8-4.1-4.4
				c-6.8-1.8-13.7-3.1-20.4-5c-4.5-1.3-8.9-2.8-13.1-4.9c-4.9-2.4-8-6.6-7.9-12.3c0.1-6.2,3.1-10.7,8.6-13.5
				c6.2-3.2,13.1-4.2,19.8-3.7c8.6,0.6,17.1,2.2,25.7,3.5c1,0.2,2.3,1.6,2.4,2.6c0.3,3.5,0.1,7,0.1,10.5c-5.9-1.5-11.4-3.6-17.2-4.2
				c-6.4-0.7-13-0.2-19.5,0.3c-1.4,0.1-2.8,2-4.1,3.1c1.2,1.3,2.3,3.2,3.8,3.7c7,2,14.1,3.4,21.1,5.4c4.4,1.3,8.7,2.8,12.7,4.9
				c5.5,2.8,8.7,7.4,8.2,13.9c-0.4,6.2-3.6,10.6-9.1,13.2c-8.2,4-17,4.5-25.8,3.9c-7.8-0.6-15.4-2.5-23.1-3.8
				c-2.3-0.4-3.3-1.5-3.1-4C38.6,275.3,38.4,272,38.4,268.1"/>
		</g>
		<g>
			<defs>
				<rect id="SVGID_13_" x="38" y="225.1" width="784.4" height="61.5"/>
			</defs>
			<clipPath id="SVGID_14_">
				<use xlink:href="#SVGID_13_"  style="overflow:visible;"/>
			</clipPath>
			<path class="st16" d="M627.7,227.1h15v57.5h-14.9c-0.1-2.4-0.2-4.7-0.4-7.5c-2,1-3.7,1.8-5.3,2.7c-9.9,5-20.2,8-31.5,6.3
				c-9.3-1.4-19.3-7-18.8-21.3c0.4-12.4,0.1-24.8,0.1-37.6h15.2c0.1,1.2,0.2,2.4,0.2,3.7c0,9.3,0,18.5,0,27.8c0,1.6,0,3.3,0.3,4.9
				c1.2,7.1,4.6,10.3,11.8,10.5c10.3,0.3,19.1-4,27.1-10.1c0.8-0.6,1-2.5,1-3.8C627.7,249.4,627.7,238.5,627.7,227.1"/>
		</g>
		<g>
			<defs>
				<rect id="SVGID_15_" x="38" y="225.1" width="784.4" height="61.5"/>
			</defs>
			<clipPath id="SVGID_16_">
				<use xlink:href="#SVGID_15_"  style="overflow:visible;"/>
			</clipPath>
			<path class="st17" d="M371.1,267.3v13.8c-16.7,6.6-33.5,7.9-50.3,1.1c-11.4-4.6-17.4-13.6-17.5-26c-0.1-12.4,5.6-21.5,17-26.3
				c16.3-6.9,32.9-5.9,49.3,0.3c0.8,0.3,1.6,1.6,1.6,2.5c0.2,3.7,0.1,7.5,0.1,11.2c-5.4-1.8-10.6-4-16-5.3
				c-7.6-1.9-15.4-1.8-22.9,0.4c-9.1,2.5-13.4,8.4-13.3,17.4c0.1,8.4,4.8,14.2,13.6,16.4c11.9,2.9,23.5,1.7,34.6-3.5
				C368.4,268.7,369.5,268.1,371.1,267.3"/>
		</g>
		<g>
			<defs>
				<rect id="SVGID_17_" x="38" y="225.1" width="784.4" height="61.5"/>
			</defs>
			<clipPath id="SVGID_18_">
				<use xlink:href="#SVGID_17_"  style="overflow:visible;"/>
			</clipPath>
			<path class="st18" d="M395,227.1h14.9v4c0,9.5,0,19,0,28.5c0,9.7,2.9,12.6,12.5,12.7c9.9,0,19.9,0,30.1,0v12.3
				c-0.8,0.1-1.7,0.4-2.5,0.4c-12.1,0-24.1,0-36.2-0.3c-3.1-0.1-6.2-0.9-9.2-1.9c-6.4-2.1-9.8-7-9.9-13.5
				c-0.3-13.6-0.1-27.2-0.1-40.8C394.6,228.1,394.8,227.7,395,227.1"/>
		</g>
	</g>
</g>
<g id="Layer_5_copy" class="st19">
	<g>
		<path d="M55.5,430.6c0,0.1,0,0.2-0.1,0.3c-0.1,0.1-0.2,0.2-0.4,0.2c-0.2,0.1-0.4,0.1-0.6,0.1c-0.3,0-0.6,0.1-1,0.1s-0.7,0-1-0.1
			c-0.3,0-0.5-0.1-0.7-0.1c-0.2-0.1-0.3-0.1-0.3-0.2s-0.1-0.2-0.1-0.3v-27.8l0,0l-11.3,28c0,0.1-0.1,0.2-0.2,0.3s-0.2,0.2-0.4,0.2
			c-0.2,0.1-0.4,0.1-0.6,0.1c-0.2,0-0.5,0-0.9,0c-0.3,0-0.6,0-0.9,0c-0.2,0-0.5-0.1-0.6-0.1c-0.2-0.1-0.3-0.1-0.4-0.2
			c-0.1-0.1-0.2-0.2-0.2-0.3l-10.8-28l0,0v27.8c0,0.1,0,0.2-0.1,0.3c-0.1,0.1-0.2,0.2-0.4,0.2c-0.2,0.1-0.4,0.1-0.7,0.1
			s-0.6,0.1-1,0.1s-0.7,0-1-0.1c-0.3,0-0.5-0.1-0.6-0.1c-0.2-0.1-0.3-0.1-0.3-0.2s-0.1-0.2-0.1-0.3v-29.4c0-0.7,0.2-1.2,0.6-1.5
			c0.4-0.3,0.8-0.4,1.2-0.4h2.6c0.5,0,1,0,1.4,0.1s0.8,0.3,1.1,0.5s0.6,0.5,0.8,0.8s0.4,0.7,0.5,1.2l9.1,23.1h0.1l9.5-23.1
			c0.2-0.5,0.4-0.9,0.6-1.3c0.2-0.3,0.5-0.6,0.7-0.8c0.3-0.2,0.5-0.4,0.9-0.4c0.3-0.1,0.7-0.1,1.1-0.1h2.7c0.3,0,0.5,0,0.7,0.1
			s0.4,0.2,0.6,0.3c0.2,0.2,0.3,0.4,0.4,0.6s0.2,0.5,0.2,0.9L55.5,430.6L55.5,430.6z"/>
		<path d="M84.2,419.3c0,1.8-0.2,3.5-0.7,5s-1.2,2.8-2.1,3.9s-2.1,2-3.6,2.6c-1.4,0.6-3.1,0.9-5,0.9c-1.8,0-3.4-0.3-4.8-0.8
			s-2.5-1.3-3.4-2.4c-0.9-1-1.6-2.3-2-3.8s-0.7-3.2-0.7-5s0.2-3.5,0.7-5s1.2-2.8,2.1-3.9s2.1-2,3.5-2.6s3.1-0.9,5-0.9
			c1.8,0,3.4,0.3,4.8,0.8s2.5,1.3,3.4,2.4c0.9,1,1.6,2.3,2,3.8C83.9,415.7,84.2,417.4,84.2,419.3z M79.9,419.5
			c0-1.2-0.1-2.3-0.3-3.4c-0.2-1.1-0.6-2-1.1-2.8s-1.2-1.4-2.1-1.9s-2-0.7-3.3-0.7c-1.2,0-2.3,0.2-3.1,0.6c-0.9,0.4-1.6,1-2.2,1.8
			s-1,1.7-1.3,2.8s-0.4,2.2-0.4,3.5c0,1.2,0.1,2.4,0.3,3.4c0.2,1.1,0.6,2,1.1,2.8s1.2,1.4,2.1,1.9s2,0.7,3.3,0.7
			c1.2,0,2.2-0.2,3.1-0.6s1.6-1,2.2-1.8s1-1.7,1.2-2.8C79.8,422,79.9,420.8,79.9,419.5z"/>
		<path d="M109.2,430.6c0,0.1,0,0.2-0.1,0.3c-0.1,0.1-0.2,0.2-0.3,0.2c-0.1,0.1-0.3,0.1-0.6,0.1c-0.2,0-0.5,0-0.8,0s-0.6,0-0.9,0
			c-0.2,0-0.4-0.1-0.6-0.1c-0.1-0.1-0.3-0.1-0.3-0.2c-0.1-0.1-0.1-0.2-0.1-0.3v-2.9c-1.2,1.3-2.4,2.3-3.6,3
			c-1.3,0.7-2.6,1.1-4.1,1.1c-1.6,0-3-0.3-4.2-1c-1.2-0.6-2.1-1.5-2.8-2.6s-1.2-2.3-1.6-3.8s-0.5-3-0.5-4.6c0-1.9,0.2-3.6,0.6-5.2
			c0.4-1.5,1-2.9,1.8-3.9c0.8-1.1,1.8-1.9,3-2.5s2.6-0.9,4.1-0.9c1.3,0,2.5,0.3,3.6,0.9s2.1,1.4,3.2,2.5v-12.9c0-0.1,0-0.2,0.1-0.3
			c0.1-0.1,0.2-0.2,0.3-0.2c0.2-0.1,0.4-0.1,0.6-0.1c0.3,0,0.6-0.1,1-0.1s0.7,0,1,0.1c0.3,0,0.5,0.1,0.6,0.1
			c0.1,0.1,0.3,0.1,0.3,0.2c0.1,0.1,0.1,0.2,0.1,0.3v32.8H109.2z M105.1,415c-1.1-1.4-2.2-2.4-3.2-3.1s-2.1-1.1-3.2-1.1
			c-1,0-1.9,0.2-2.6,0.7s-1.3,1.1-1.8,2c-0.5,0.8-0.8,1.7-1,2.7s-0.3,2.1-0.3,3.1c0,1.1,0.1,2.2,0.3,3.3c0.2,1.1,0.5,2,0.9,2.9
			c0.4,0.8,1,1.5,1.7,2s1.6,0.8,2.7,0.8c0.5,0,1.1-0.1,1.6-0.2s1-0.4,1.5-0.7c0.5-0.3,1.1-0.8,1.7-1.3c0.6-0.6,1.2-1.2,1.8-2
			L105.1,415L105.1,415z"/>
		<path d="M135.7,418.5c0,0.6-0.2,1.1-0.5,1.4s-0.7,0.4-1.1,0.4h-14.6c0,1.2,0.1,2.3,0.4,3.3c0.2,1,0.7,1.8,1.2,2.5
			c0.6,0.7,1.3,1.3,2.3,1.6c0.9,0.4,2.1,0.6,3.4,0.6c1.1,0,2-0.1,2.8-0.3c0.8-0.2,1.5-0.4,2.1-0.6s1.1-0.4,1.5-0.6s0.7-0.3,0.9-0.3
			c0.1,0,0.2,0,0.3,0.1s0.2,0.1,0.2,0.3c0,0.1,0.1,0.3,0.1,0.5s0,0.5,0,0.8c0,0.2,0,0.4,0,0.6s0,0.3-0.1,0.4c0,0.1-0.1,0.2-0.1,0.3
			c-0.1,0.1-0.1,0.2-0.2,0.3c-0.1,0.1-0.4,0.2-0.8,0.4c-0.4,0.2-1,0.4-1.7,0.6s-1.5,0.4-2.5,0.5c-0.9,0.2-1.9,0.2-3,0.2
			c-1.8,0-3.4-0.3-4.8-0.8c-1.4-0.5-2.5-1.3-3.5-2.3c-0.9-1-1.6-2.3-2.1-3.8s-0.7-3.3-0.7-5.3c0-1.9,0.2-3.6,0.7-5.1
			s1.2-2.8,2.1-3.9c0.9-1.1,2.1-1.9,3.4-2.4c1.3-0.6,2.8-0.9,4.4-0.9c1.7,0,3.2,0.3,4.5,0.8c1.2,0.6,2.2,1.3,3,2.3
			c0.8,0.9,1.4,2.1,1.7,3.3c0.4,1.3,0.6,2.6,0.6,4.1v1H135.7z M131.6,417.3c0-2.1-0.4-3.8-1.4-5s-2.5-1.8-4.5-1.8
			c-1,0-1.9,0.2-2.7,0.6s-1.4,0.9-1.9,1.5s-0.9,1.4-1.2,2.2s-0.4,1.7-0.5,2.6h12.2V417.3z"/>
		<path d="M146,430.6c0,0.1,0,0.2-0.1,0.3c-0.1,0.1-0.2,0.2-0.3,0.2c-0.1,0.1-0.4,0.1-0.6,0.1c-0.3,0-0.6,0-1,0s-0.7,0-1,0
			s-0.5-0.1-0.6-0.1c-0.2-0.1-0.3-0.1-0.3-0.2c-0.1-0.1-0.1-0.2-0.1-0.3v-33c0-0.1,0-0.2,0.1-0.3c0.1-0.1,0.2-0.2,0.3-0.2
			c0.2-0.1,0.4-0.1,0.6-0.1c0.3,0,0.6,0,1,0s0.7,0,1,0s0.5,0.1,0.6,0.1c0.1,0.1,0.3,0.1,0.3,0.2c0.1,0.1,0.1,0.2,0.1,0.3V430.6z"/>
		<path d="M157.6,430.6c0,0.1,0,0.2-0.1,0.3c-0.1,0.1-0.2,0.2-0.3,0.2c-0.1,0.1-0.4,0.1-0.6,0.1c-0.3,0-0.6,0-1,0s-0.7,0-1,0
			s-0.5-0.1-0.6-0.1c-0.2-0.1-0.3-0.1-0.3-0.2c-0.1-0.1-0.1-0.2-0.1-0.3v-33c0-0.1,0-0.2,0.1-0.3c0.1-0.1,0.2-0.2,0.3-0.2
			c0.2-0.1,0.4-0.1,0.6-0.1c0.3,0,0.6,0,1,0s0.7,0,1,0s0.5,0.1,0.6,0.1c0.1,0.1,0.3,0.1,0.3,0.2c0.1,0.1,0.1,0.2,0.1,0.3V430.6z"/>
		<path d="M169.7,400.9c0,1-0.2,1.6-0.5,2c-0.4,0.3-1,0.5-2,0.5s-1.6-0.2-2-0.5s-0.5-1-0.5-1.9c0-1,0.2-1.6,0.5-2
			c0.4-0.3,1-0.5,2-0.5s1.6,0.2,2,0.5C169.5,399.3,169.7,399.9,169.7,400.9z M169.2,430.6c0,0.1,0,0.2-0.1,0.3
			c-0.1,0.1-0.2,0.2-0.3,0.2c-0.1,0.1-0.4,0.1-0.6,0.1c-0.3,0-0.6,0-1,0s-0.7,0-1,0s-0.5-0.1-0.6-0.1c-0.2-0.1-0.3-0.1-0.3-0.2
			c-0.1-0.1-0.1-0.2-0.1-0.3v-22.2c0-0.1,0-0.2,0.1-0.3c0.1-0.1,0.2-0.2,0.3-0.2c0.2-0.1,0.4-0.1,0.6-0.1c0.3,0,0.6,0,1,0s0.7,0,1,0
			s0.5,0.1,0.6,0.1c0.1,0.1,0.3,0.1,0.3,0.2c0.1,0.1,0.1,0.2,0.1,0.3V430.6z"/>
		<path d="M195.9,430.6c0,0.1,0,0.2-0.1,0.3c-0.1,0.1-0.2,0.2-0.3,0.2c-0.1,0.1-0.4,0.1-0.6,0.1c-0.3,0-0.6,0-1,0s-0.7,0-1,0
			s-0.5-0.1-0.6-0.1c-0.1-0.1-0.3-0.1-0.3-0.2c-0.1-0.1-0.1-0.2-0.1-0.3v-13c0-1.3-0.1-2.3-0.3-3.1c-0.2-0.8-0.5-1.4-0.9-2
			s-0.9-1-1.5-1.3s-1.3-0.4-2.1-0.4c-1,0-2,0.4-3.1,1.1c-1,0.7-2.1,1.8-3.2,3.2v15.5c0,0.1,0,0.2-0.1,0.3c-0.1,0.1-0.2,0.2-0.3,0.2
			c-0.1,0.1-0.4,0.1-0.6,0.1c-0.3,0-0.6,0-1,0s-0.7,0-1,0s-0.5-0.1-0.6-0.1c-0.2-0.1-0.3-0.1-0.3-0.2c-0.1-0.1-0.1-0.2-0.1-0.3
			v-22.2c0-0.1,0-0.2,0.1-0.3s0.1-0.2,0.3-0.2c0.1-0.1,0.3-0.1,0.6-0.1c0.2,0,0.5,0,0.9,0s0.7,0,0.9,0s0.4,0.1,0.6,0.1
			c0.1,0.1,0.2,0.2,0.3,0.2s0.1,0.2,0.1,0.3v2.9c1.3-1.4,2.5-2.4,3.7-3.1c1.2-0.6,2.5-1,3.8-1c1.5,0,2.7,0.3,3.7,0.8s1.8,1.2,2.5,2
			c0.6,0.8,1.1,1.8,1.3,3c0.3,1.1,0.4,2.5,0.4,4.1L195.9,430.6L195.9,430.6z"/>
		<path d="M221.9,409.4c0,0.6-0.1,1-0.2,1.2c-0.2,0.3-0.4,0.4-0.6,0.4h-3.2c0.6,0.6,1,1.2,1.2,2s0.3,1.5,0.3,2.2
			c0,1.3-0.2,2.4-0.6,3.4c-0.4,1-1,1.8-1.8,2.5s-1.7,1.2-2.7,1.6c-1.1,0.4-2.2,0.5-3.5,0.5c-0.9,0-1.8-0.1-2.6-0.4
			c-0.8-0.2-1.4-0.5-1.9-0.9c-0.3,0.3-0.5,0.6-0.7,1s-0.3,0.8-0.3,1.3c0,0.6,0.3,1.1,0.8,1.4s1.2,0.6,2.1,0.6l5.8,0.2
			c1.1,0,2.1,0.2,3,0.5s1.7,0.7,2.4,1.2s1.2,1.1,1.6,1.9c0.4,0.7,0.6,1.6,0.6,2.6s-0.2,2-0.6,2.9c-0.4,0.9-1.1,1.7-2,2.4
			s-2,1.3-3.4,1.7c-1.4,0.4-3,0.6-4.8,0.6s-3.3-0.2-4.6-0.5s-2.3-0.7-3.1-1.2s-1.4-1.2-1.8-1.9c-0.4-0.7-0.5-1.5-0.5-2.4
			c0-0.5,0.1-1.1,0.2-1.6c0.1-0.5,0.3-1,0.6-1.5s0.6-0.9,1-1.3s0.9-0.8,1.4-1.2c-0.8-0.4-1.4-0.9-1.8-1.6c-0.4-0.6-0.6-1.3-0.6-2
			c0-1,0.2-1.9,0.6-2.7c0.4-0.8,0.9-1.5,1.5-2.1c-0.5-0.6-0.9-1.3-1.2-2.1s-0.4-1.7-0.4-2.8c0-1.3,0.2-2.4,0.6-3.4
			c0.4-1,1-1.9,1.8-2.5s1.7-1.2,2.7-1.6c1.1-0.4,2.2-0.6,3.5-0.6c0.7,0,1.3,0,1.9,0.1c0.6,0.1,1.1,0.2,1.6,0.3h6.7
			c0.3,0,0.5,0.1,0.6,0.4C221.8,408.4,221.9,408.8,221.9,409.4z M217.5,432.9c0-1-0.4-1.7-1.2-2.2s-1.8-0.8-3.2-0.8l-5.8-0.2
			c-0.5,0.4-1,0.8-1.3,1.2s-0.6,0.7-0.8,1.1c-0.2,0.3-0.3,0.7-0.4,1c-0.1,0.3-0.1,0.7-0.1,1c0,1.1,0.5,1.9,1.6,2.4
			c1.1,0.6,2.6,0.8,4.5,0.8c1.2,0,2.3-0.1,3.1-0.4c0.8-0.2,1.5-0.6,2-1s0.9-0.8,1.1-1.4C217.4,434,217.5,433.4,217.5,432.9z
			 M215.5,415.3c0-1.5-0.4-2.7-1.2-3.5s-2-1.3-3.5-1.3c-0.8,0-1.5,0.1-2.1,0.4s-1.1,0.6-1.5,1.1s-0.7,1-0.9,1.6s-0.3,1.2-0.3,1.9
			c0,1.5,0.4,2.6,1.2,3.5c0.8,0.8,2,1.3,3.5,1.3c0.8,0,1.5-0.1,2.1-0.4s1.1-0.6,1.5-1.1s0.7-1,0.9-1.6
			C215.4,416.5,215.5,415.9,215.5,415.3z"/>
		<path d="M384.4,408.6c0,1.6-0.3,3-0.8,4.3s-1.3,2.4-2.3,3.3s-2.2,1.6-3.6,2.1s-3.1,0.7-5.1,0.7H369v11.5c0,0.1,0,0.2-0.1,0.3
			s-0.2,0.2-0.3,0.2c-0.2,0.1-0.4,0.1-0.6,0.1c-0.3,0-0.6,0.1-1,0.1s-0.8,0-1-0.1c-0.3,0-0.5-0.1-0.7-0.1s-0.3-0.1-0.3-0.2
			c-0.1-0.1-0.1-0.2-0.1-0.3V401c0-0.7,0.2-1.1,0.5-1.4s0.7-0.4,1.2-0.4h6.8c0.7,0,1.4,0,2,0.1s1.4,0.2,2.2,0.4
			c0.9,0.2,1.7,0.5,2.6,1.1c0.9,0.5,1.7,1.2,2.3,1.9c0.6,0.8,1.1,1.6,1.4,2.6C384.2,406.3,384.4,407.4,384.4,408.6z M379.9,409
			c0-1.3-0.2-2.4-0.7-3.3s-1.1-1.5-1.8-2c-0.7-0.4-1.5-0.7-2.2-0.8c-0.8-0.1-1.5-0.2-2.2-0.2h-4v12.8h3.8c1.3,0,2.4-0.2,3.2-0.5
			c0.8-0.3,1.6-0.8,2.1-1.4c0.6-0.6,1-1.3,1.3-2.1C379.8,410.8,379.9,409.9,379.9,409z"/>
		<path d="M394.5,430.6c0,0.1,0,0.2-0.1,0.3c-0.1,0.1-0.2,0.2-0.3,0.2c-0.1,0.1-0.4,0.1-0.6,0.1c-0.3,0-0.6,0-1,0s-0.7,0-1,0
			s-0.5-0.1-0.6-0.1c-0.2-0.1-0.3-0.1-0.3-0.2c-0.1-0.1-0.1-0.2-0.1-0.3v-33c0-0.1,0-0.2,0.1-0.3c0.1-0.1,0.2-0.2,0.3-0.2
			c0.2-0.1,0.4-0.1,0.6-0.1c0.3,0,0.6,0,1,0s0.8,0,1,0c0.3,0,0.5,0.1,0.6,0.1c0.1,0.1,0.3,0.1,0.3,0.2c0.1,0.1,0.1,0.2,0.1,0.3
			V430.6z"/>
		<path d="M418.8,430.6c0,0.2-0.1,0.3-0.2,0.4s-0.3,0.2-0.5,0.2s-0.6,0.1-1,0.1s-0.8,0-1-0.1c-0.3,0-0.4-0.1-0.6-0.2
			c-0.1-0.1-0.2-0.2-0.2-0.4v-2.2c-1,1-2.1,1.8-3.2,2.4s-2.5,0.9-3.8,0.9c-1.2,0-2.2-0.2-3.2-0.5c-0.9-0.3-1.8-0.7-2.4-1.3
			c-0.7-0.6-1.2-1.3-1.6-2.1c-0.4-0.8-0.6-1.8-0.6-2.9c0-1.3,0.3-2.3,0.8-3.3c0.5-0.9,1.2-1.7,2.2-2.3c1-0.6,2.1-1.1,3.5-1.4
			s2.9-0.5,4.7-0.5h3.1v-1.7c0-0.9-0.1-1.6-0.3-2.3c-0.2-0.7-0.5-1.2-0.9-1.6s-0.9-0.8-1.6-1c-0.6-0.2-1.4-0.3-2.4-0.3
			s-1.9,0.1-2.7,0.4c-0.8,0.2-1.5,0.5-2.1,0.8s-1.1,0.6-1.5,0.8c-0.4,0.2-0.7,0.4-0.9,0.4c-0.1,0-0.2,0-0.3-0.1
			c-0.1-0.1-0.2-0.2-0.3-0.3c-0.1-0.1-0.1-0.3-0.2-0.5c0-0.2,0-0.4,0-0.7c0-0.4,0-0.7,0.1-1c0.1-0.2,0.2-0.5,0.4-0.7
			c0.2-0.2,0.6-0.5,1.1-0.8s1.2-0.6,1.9-0.8s1.5-0.4,2.3-0.6s1.7-0.2,2.5-0.2c1.6,0,3,0.2,4.1,0.5c1.1,0.4,2,0.9,2.7,1.6
			s1.2,1.6,1.5,2.6s0.5,2.2,0.5,3.6v15.1H418.8z M414.7,420.5h-3.5c-1.1,0-2.1,0.1-2.9,0.3c-0.8,0.2-1.5,0.5-2.1,0.8
			c-0.5,0.4-0.9,0.8-1.2,1.3c-0.3,0.5-0.4,1.1-0.4,1.8c0,1.2,0.4,2.1,1.1,2.8c0.7,0.7,1.8,1,3.1,1c1.1,0,2.1-0.3,3-0.8
			s1.9-1.4,2.9-2.5V420.5z"/>
		<path d="M445.4,430.6c0,0.1,0,0.2-0.1,0.3c-0.1,0.1-0.2,0.2-0.3,0.2c-0.1,0.1-0.4,0.1-0.6,0.1c-0.3,0-0.6,0-1,0s-0.7,0-1,0
			s-0.5-0.1-0.6-0.1c-0.1-0.1-0.3-0.1-0.3-0.2c-0.1-0.1-0.1-0.2-0.1-0.3v-13c0-1.3-0.1-2.3-0.3-3.1c-0.2-0.8-0.5-1.4-0.9-2
			s-0.9-1-1.5-1.3s-1.3-0.4-2.1-0.4c-1,0-2,0.4-3.1,1.1c-1,0.7-2.1,1.8-3.2,3.2v15.5c0,0.1,0,0.2-0.1,0.3c-0.1,0.1-0.2,0.2-0.3,0.2
			c-0.1,0.1-0.4,0.1-0.6,0.1c-0.3,0-0.6,0-1,0s-0.7,0-1,0s-0.5-0.1-0.6-0.1c-0.2-0.1-0.3-0.1-0.3-0.2c-0.1-0.1-0.1-0.2-0.1-0.3
			v-22.2c0-0.1,0-0.2,0.1-0.3s0.1-0.2,0.3-0.2c0.1-0.1,0.3-0.1,0.6-0.1c0.2,0,0.5,0,0.9,0s0.7,0,0.9,0c0.2,0,0.4,0.1,0.6,0.1
			c0.1,0.1,0.2,0.2,0.3,0.2s0.1,0.2,0.1,0.3v2.9c1.3-1.4,2.5-2.4,3.7-3.1c1.2-0.6,2.5-1,3.8-1c1.5,0,2.7,0.3,3.7,0.8s1.8,1.2,2.5,2
			c0.6,0.8,1.1,1.8,1.3,3c0.3,1.1,0.4,2.5,0.4,4.1L445.4,430.6L445.4,430.6z"/>
		<path d="M472,430.6c0,0.1,0,0.2-0.1,0.3c-0.1,0.1-0.2,0.2-0.3,0.2c-0.1,0.1-0.4,0.1-0.6,0.1c-0.3,0-0.6,0-1,0s-0.8,0-1,0
			c-0.3,0-0.5-0.1-0.6-0.1c-0.1-0.1-0.3-0.1-0.3-0.2c-0.1-0.1-0.1-0.2-0.1-0.3v-13c0-1.3-0.1-2.3-0.3-3.1c-0.2-0.8-0.5-1.4-0.9-2
			s-0.9-1-1.5-1.3s-1.3-0.4-2.1-0.4c-1,0-2,0.4-3.1,1.1c-1,0.7-2.1,1.8-3.2,3.2v15.5c0,0.1,0,0.2-0.1,0.3c-0.1,0.1-0.2,0.2-0.3,0.2
			c-0.1,0.1-0.4,0.1-0.6,0.1c-0.3,0-0.6,0-1,0s-0.7,0-1,0s-0.5-0.1-0.6-0.1c-0.2-0.1-0.3-0.1-0.3-0.2c-0.1-0.1-0.1-0.2-0.1-0.3
			v-22.2c0-0.1,0-0.2,0.1-0.3s0.1-0.2,0.3-0.2c0.1-0.1,0.3-0.1,0.6-0.1c0.2,0,0.5,0,0.9,0s0.7,0,0.9,0c0.2,0,0.4,0.1,0.6,0.1
			c0.1,0.1,0.2,0.2,0.3,0.2c0.1,0.1,0.1,0.2,0.1,0.3v2.9c1.3-1.4,2.5-2.4,3.7-3.1c1.2-0.6,2.5-1,3.8-1c1.5,0,2.7,0.3,3.7,0.8
			s1.8,1.2,2.5,2c0.6,0.8,1.1,1.8,1.3,3c0.3,1.1,0.4,2.5,0.4,4.1L472,430.6L472,430.6z"/>
		<path d="M484,400.9c0,1-0.2,1.6-0.5,2c-0.4,0.3-1,0.5-2,0.5s-1.6-0.2-2-0.5s-0.5-1-0.5-1.9c0-1,0.2-1.6,0.5-2c0.4-0.3,1-0.5,2-0.5
			s1.6,0.2,2,0.5C483.8,399.3,484,399.9,484,400.9z M483.5,430.6c0,0.1,0,0.2-0.1,0.3c-0.1,0.1-0.2,0.2-0.3,0.2
			c-0.1,0.1-0.4,0.1-0.6,0.1c-0.3,0-0.6,0-1,0s-0.7,0-1,0s-0.5-0.1-0.6-0.1c-0.2-0.1-0.3-0.1-0.3-0.2c-0.1-0.1-0.1-0.2-0.1-0.3
			v-22.2c0-0.1,0-0.2,0.1-0.3c0.1-0.1,0.2-0.2,0.3-0.2c0.2-0.1,0.4-0.1,0.6-0.1c0.3,0,0.6,0,1,0s0.7,0,1,0s0.5,0.1,0.6,0.1
			c0.1,0.1,0.3,0.1,0.3,0.2c0.1,0.1,0.1,0.2,0.1,0.3V430.6z"/>
		<path d="M510.2,430.6c0,0.1,0,0.2-0.1,0.3c-0.1,0.1-0.2,0.2-0.3,0.2c-0.1,0.1-0.4,0.1-0.6,0.1c-0.3,0-0.6,0-1,0s-0.7,0-1,0
			s-0.5-0.1-0.6-0.1c-0.1-0.1-0.3-0.1-0.3-0.2c-0.1-0.1-0.1-0.2-0.1-0.3v-13c0-1.3-0.1-2.3-0.3-3.1c-0.2-0.8-0.5-1.4-0.9-2
			s-0.9-1-1.5-1.3s-1.3-0.4-2.1-0.4c-1,0-2,0.4-3.1,1.1c-1,0.7-2.1,1.8-3.2,3.2v15.5c0,0.1,0,0.2-0.1,0.3c-0.1,0.1-0.2,0.2-0.3,0.2
			c-0.1,0.1-0.4,0.1-0.6,0.1c-0.3,0-0.6,0-1,0s-0.7,0-1,0s-0.5-0.1-0.6-0.1c-0.2-0.1-0.3-0.1-0.3-0.2c-0.1-0.1-0.1-0.2-0.1-0.3
			v-22.2c0-0.1,0-0.2,0.1-0.3s0.1-0.2,0.3-0.2c0.1-0.1,0.3-0.1,0.6-0.1c0.2,0,0.5,0,0.9,0s0.7,0,0.9,0c0.2,0,0.4,0.1,0.6,0.1
			c0.1,0.1,0.2,0.2,0.3,0.2s0.1,0.2,0.1,0.3v2.9c1.3-1.4,2.5-2.4,3.7-3.1c1.2-0.6,2.5-1,3.8-1c1.5,0,2.7,0.3,3.7,0.8s1.8,1.2,2.5,2
			c0.6,0.8,1.1,1.8,1.3,3c0.3,1.1,0.4,2.5,0.4,4.1v13.5H510.2z"/>
		<path d="M536.2,409.4c0,0.6-0.1,1-0.2,1.2c-0.2,0.3-0.4,0.4-0.6,0.4h-3.2c0.6,0.6,1,1.2,1.2,2s0.3,1.5,0.3,2.2
			c0,1.3-0.2,2.4-0.6,3.4c-0.4,1-1,1.8-1.8,2.5s-1.7,1.2-2.7,1.6c-1.1,0.4-2.2,0.5-3.5,0.5c-0.9,0-1.8-0.1-2.6-0.4
			c-0.8-0.2-1.4-0.5-1.9-0.9c-0.3,0.3-0.5,0.6-0.7,1s-0.3,0.8-0.3,1.3c0,0.6,0.3,1.1,0.8,1.4s1.2,0.6,2.1,0.6l5.8,0.2
			c1.1,0,2.1,0.2,3,0.5s1.7,0.7,2.4,1.2s1.2,1.1,1.6,1.9c0.4,0.7,0.6,1.6,0.6,2.6s-0.2,2-0.6,2.9c-0.4,0.9-1.1,1.7-2,2.4
			s-2,1.3-3.4,1.7c-1.4,0.4-3,0.6-4.8,0.6s-3.3-0.2-4.6-0.5s-2.3-0.7-3.1-1.2s-1.4-1.2-1.8-1.9c-0.4-0.7-0.5-1.5-0.5-2.4
			c0-0.5,0.1-1.1,0.2-1.6c0.1-0.5,0.3-1,0.6-1.5s0.6-0.9,1-1.3s0.9-0.8,1.4-1.2c-0.8-0.4-1.4-0.9-1.8-1.6c-0.4-0.6-0.6-1.3-0.6-2
			c0-1,0.2-1.9,0.6-2.7c0.4-0.8,0.9-1.5,1.5-2.1c-0.5-0.6-0.9-1.3-1.2-2.1s-0.4-1.7-0.4-2.8c0-1.3,0.2-2.4,0.6-3.4
			c0.4-1,1-1.9,1.8-2.5s1.7-1.2,2.7-1.6c1.1-0.4,2.2-0.6,3.5-0.6c0.7,0,1.3,0,1.9,0.1c0.6,0.1,1.1,0.2,1.6,0.3h6.7
			c0.3,0,0.5,0.1,0.6,0.4C536.1,408.4,536.2,408.8,536.2,409.4z M531.9,432.9c0-1-0.4-1.7-1.2-2.2s-1.8-0.8-3.2-0.8l-5.8-0.2
			c-0.5,0.4-1,0.8-1.3,1.2s-0.6,0.7-0.8,1.1c-0.2,0.3-0.3,0.7-0.4,1c-0.1,0.3-0.1,0.7-0.1,1c0,1.1,0.5,1.9,1.6,2.4
			c1.1,0.6,2.6,0.8,4.5,0.8c1.2,0,2.3-0.1,3.1-0.4c0.8-0.2,1.5-0.6,2-1s0.9-0.8,1.1-1.4C531.7,434,531.9,433.4,531.9,432.9z
			 M529.8,415.3c0-1.5-0.4-2.7-1.2-3.5s-2-1.3-3.5-1.3c-0.8,0-1.5,0.1-2.1,0.4s-1.1,0.6-1.5,1.1s-0.7,1-0.9,1.6s-0.3,1.2-0.3,1.9
			c0,1.5,0.4,2.6,1.2,3.5c0.8,0.8,2,1.3,3.5,1.3c0.8,0,1.5-0.1,2.1-0.4s1.1-0.6,1.5-1.1s0.7-1,0.9-1.6
			C529.7,416.5,529.8,415.9,529.8,415.3z"/>
		<path d="M677.6,426.7c0,0.3,0,0.5,0,0.7s0,0.4-0.1,0.5c0,0.1-0.1,0.3-0.2,0.4c-0.1,0.1-0.2,0.3-0.3,0.4c-0.2,0.2-0.5,0.4-1,0.8
			c-0.5,0.3-1.2,0.7-2,1s-1.7,0.6-2.7,0.8c-1,0.2-2.1,0.3-3.3,0.3c-2.1,0-3.9-0.3-5.6-1s-3.1-1.7-4.3-3.1c-1.2-1.3-2.1-3-2.7-5
			c-0.6-2-1-4.3-1-6.9c0-2.7,0.3-5,1-7.1s1.6-3.8,2.9-5.3c1.2-1.4,2.7-2.5,4.4-3.3s3.6-1.1,5.7-1.1c0.9,0,1.8,0.1,2.7,0.3
			s1.7,0.4,2.4,0.7c0.7,0.3,1.4,0.6,2,0.9s1,0.6,1.2,0.9c0.2,0.2,0.4,0.4,0.4,0.5c0.1,0.1,0.1,0.3,0.2,0.4c0,0.2,0.1,0.3,0.1,0.6
			c0,0.2,0,0.5,0,0.8s0,0.6,0,0.8c0,0.2-0.1,0.4-0.1,0.6c-0.1,0.2-0.1,0.3-0.2,0.3c-0.1,0.1-0.2,0.1-0.3,0.1c-0.2,0-0.6-0.2-1-0.5
			s-0.9-0.7-1.6-1.1c-0.7-0.4-1.4-0.7-2.4-1.1c-0.9-0.3-2.1-0.5-3.4-0.5c-1.4,0-2.7,0.3-3.9,0.9s-2.2,1.4-3,2.5s-1.5,2.4-1.9,4
			s-0.7,3.4-0.7,5.4s0.2,3.8,0.7,5.4c0.4,1.6,1.1,2.9,1.9,3.9c0.8,1,1.8,1.8,3,2.4s2.5,0.8,4,0.8c1.3,0,2.4-0.2,3.3-0.5
			c1-0.3,1.8-0.7,2.4-1c0.7-0.4,1.2-0.7,1.7-1c0.4-0.3,0.8-0.5,1-0.5c0.1,0,0.2,0,0.3,0.1s0.1,0.1,0.2,0.3c0,0.1,0.1,0.3,0.1,0.6
			C677.6,426,677.6,426.3,677.6,426.7z"/>
		<path d="M703.4,419.3c0,1.8-0.2,3.5-0.7,5s-1.2,2.8-2.1,3.9s-2.1,2-3.6,2.6c-1.4,0.6-3.1,0.9-5,0.9c-1.8,0-3.4-0.3-4.8-0.8
			c-1.4-0.5-2.5-1.3-3.4-2.4c-0.9-1-1.6-2.3-2-3.8s-0.7-3.2-0.7-5s0.2-3.5,0.7-5s1.2-2.8,2.1-3.9c0.9-1.1,2.1-2,3.5-2.6
			s3.1-0.9,5-0.9c1.8,0,3.4,0.3,4.8,0.8c1.4,0.5,2.5,1.3,3.4,2.4c0.9,1,1.6,2.3,2,3.8C703.2,415.7,703.4,417.4,703.4,419.3z
			 M699.2,419.5c0-1.2-0.1-2.3-0.3-3.4s-0.6-2-1.1-2.8s-1.2-1.4-2.1-1.9c-0.9-0.5-2-0.7-3.3-0.7c-1.2,0-2.3,0.2-3.1,0.6
			c-0.9,0.4-1.6,1-2.2,1.8c-0.6,0.8-1,1.7-1.3,2.8c-0.3,1.1-0.4,2.2-0.4,3.5c0,1.2,0.1,2.4,0.3,3.4c0.2,1.1,0.6,2,1.1,2.8
			s1.2,1.4,2.1,1.9s2,0.7,3.3,0.7c1.2,0,2.2-0.2,3.1-0.6s1.6-1,2.2-1.8c0.6-0.8,1-1.7,1.2-2.8S699.2,420.8,699.2,419.5z"/>
		<path d="M728.5,430.6c0,0.1,0,0.2-0.1,0.3c-0.1,0.1-0.2,0.2-0.3,0.2c-0.1,0.1-0.4,0.1-0.6,0.1c-0.3,0-0.6,0-1,0s-0.8,0-1,0
			c-0.3,0-0.5-0.1-0.6-0.1c-0.1-0.1-0.3-0.1-0.3-0.2c-0.1-0.1-0.1-0.2-0.1-0.3v-13c0-1.3-0.1-2.3-0.3-3.1c-0.2-0.8-0.5-1.4-0.9-2
			s-0.9-1-1.5-1.3s-1.3-0.4-2.1-0.4c-1,0-2,0.4-3.1,1.1c-1,0.7-2.1,1.8-3.2,3.2v15.5c0,0.1,0,0.2-0.1,0.3c-0.1,0.1-0.2,0.2-0.3,0.2
			c-0.1,0.1-0.4,0.1-0.6,0.1c-0.3,0-0.6,0-1,0s-0.7,0-1,0s-0.5-0.1-0.6-0.1c-0.2-0.1-0.3-0.1-0.3-0.2c-0.1-0.1-0.1-0.2-0.1-0.3
			v-22.2c0-0.1,0-0.2,0.1-0.3s0.1-0.2,0.3-0.2c0.1-0.1,0.3-0.1,0.6-0.1c0.2,0,0.5,0,0.9,0s0.7,0,0.9,0s0.4,0.1,0.6,0.1
			c0.1,0.1,0.2,0.2,0.3,0.2c0.1,0.1,0.1,0.2,0.1,0.3v2.9c1.3-1.4,2.5-2.4,3.7-3.1c1.2-0.6,2.5-1,3.8-1c1.5,0,2.7,0.3,3.7,0.8
			s1.8,1.2,2.5,2c0.6,0.8,1.1,1.8,1.3,3c0.3,1.1,0.4,2.5,0.4,4.1v13.5H728.5z"/>
		<path d="M747.1,429c0,0.5,0,0.9-0.1,1.1c-0.1,0.3-0.2,0.5-0.3,0.6s-0.3,0.3-0.6,0.4s-0.6,0.2-0.9,0.3c-0.3,0.1-0.7,0.1-1.1,0.2
			s-0.8,0.1-1.1,0.1c-1.2,0-2.1-0.2-3-0.5c-0.8-0.3-1.5-0.8-2-1.4s-0.9-1.4-1.1-2.3s-0.4-2.1-0.4-3.3v-13h-3.1
			c-0.2,0-0.4-0.1-0.6-0.4c-0.1-0.3-0.2-0.7-0.2-1.3c0-0.3,0-0.6,0.1-0.8s0.1-0.4,0.2-0.5c0.1-0.1,0.2-0.2,0.3-0.3
			c0.1-0.1,0.2-0.1,0.4-0.1h3.1v-5.3c0-0.1,0-0.2,0.1-0.3c0.1-0.1,0.2-0.2,0.3-0.3c0.2-0.1,0.4-0.1,0.6-0.2c0.3,0,0.6,0,1,0
			s0.7,0,1,0s0.5,0.1,0.6,0.2s0.3,0.2,0.3,0.3s0.1,0.2,0.1,0.3v5.3h5.7c0.1,0,0.2,0,0.3,0.1s0.2,0.2,0.3,0.3
			c0.1,0.1,0.1,0.3,0.2,0.5s0,0.5,0,0.8c0,0.6-0.1,1-0.2,1.3c-0.1,0.3-0.3,0.4-0.6,0.4h-5.7v12.4c0,1.5,0.2,2.7,0.7,3.5
			s1.3,1.2,2.4,1.2c0.4,0,0.7,0,1-0.1s0.6-0.2,0.8-0.2c0.2-0.1,0.4-0.2,0.6-0.2c0.2-0.1,0.3-0.1,0.4-0.1c0.1,0,0.2,0,0.2,0.1
			s0.1,0.1,0.2,0.2c0,0.1,0.1,0.3,0.1,0.5S747.1,428.7,747.1,429z"/>
		<path d="M765.4,409.8c0,0.4,0,0.7,0,0.9c0,0.2,0,0.4-0.1,0.6c-0.1,0.1-0.1,0.2-0.2,0.3s-0.2,0.1-0.3,0.1s-0.3,0-0.5-0.1
			s-0.4-0.1-0.6-0.2c-0.2-0.1-0.5-0.1-0.8-0.2s-0.6-0.1-1-0.1s-0.8,0.1-1.2,0.2c-0.4,0.2-0.8,0.4-1.2,0.8s-0.9,0.9-1.4,1.5
			s-1,1.4-1.6,2.3v14.6c0,0.1,0,0.2-0.1,0.3c-0.1,0.1-0.2,0.2-0.3,0.2c-0.1,0.1-0.4,0.1-0.6,0.1c-0.3,0-0.6,0-1,0s-0.7,0-1,0
			s-0.5-0.1-0.6-0.1c-0.2-0.1-0.3-0.1-0.3-0.2c-0.1-0.1-0.1-0.2-0.1-0.3v-22.2c0-0.1,0-0.2,0.1-0.3c0-0.1,0.1-0.2,0.3-0.2
			c0.1-0.1,0.3-0.1,0.6-0.1c0.2,0,0.5,0,0.9,0s0.7,0,0.9,0s0.4,0.1,0.6,0.1c0.1,0.1,0.2,0.2,0.3,0.2c0.1,0.1,0.1,0.2,0.1,0.3v3.2
			c0.6-0.9,1.2-1.6,1.7-2.2s1-1,1.5-1.3s1-0.5,1.4-0.7c0.5-0.1,0.9-0.2,1.4-0.2c0.2,0,0.5,0,0.7,0c0.3,0,0.6,0.1,0.9,0.1
			c0.3,0.1,0.6,0.1,0.8,0.2s0.4,0.2,0.5,0.2c0.1,0.1,0.2,0.2,0.2,0.2s0.1,0.2,0.1,0.3c0,0.1,0,0.3,0,0.5
			C765.4,409.2,765.4,409.5,765.4,409.8z"/>
		<path d="M790,419.3c0,1.8-0.2,3.5-0.7,5s-1.2,2.8-2.1,3.9s-2.1,2-3.6,2.6c-1.4,0.6-3.1,0.9-5,0.9c-1.8,0-3.4-0.3-4.8-0.8
			c-1.4-0.5-2.5-1.3-3.4-2.4c-0.9-1-1.6-2.3-2-3.8s-0.7-3.2-0.7-5s0.2-3.5,0.7-5s1.2-2.8,2.1-3.9c0.9-1.1,2.1-2,3.5-2.6
			s3.1-0.9,5-0.9c1.8,0,3.4,0.3,4.8,0.8c1.4,0.5,2.5,1.3,3.4,2.4c0.9,1,1.6,2.3,2,3.8C789.7,415.7,790,417.4,790,419.3z
			 M785.7,419.5c0-1.2-0.1-2.3-0.3-3.4s-0.6-2-1.1-2.8s-1.2-1.4-2.1-1.9s-2-0.7-3.3-0.7c-1.2,0-2.3,0.2-3.1,0.6
			c-0.9,0.4-1.6,1-2.2,1.8c-0.6,0.8-1,1.7-1.3,2.8c-0.3,1.1-0.4,2.2-0.4,3.5c0,1.2,0.1,2.4,0.3,3.4c0.2,1.1,0.6,2,1.1,2.8
			s1.2,1.4,2.1,1.9c0.9,0.5,2,0.7,3.3,0.7c1.2,0,2.2-0.2,3.1-0.6c0.9-0.4,1.6-1,2.2-1.8c0.6-0.8,1-1.7,1.2-2.8
			C785.6,422,785.7,420.8,785.7,419.5z"/>
		<path d="M800,430.6c0,0.1,0,0.2-0.1,0.3c-0.1,0.1-0.2,0.2-0.3,0.2c-0.1,0.1-0.4,0.1-0.6,0.1c-0.3,0-0.6,0-1,0s-0.7,0-1,0
			s-0.5-0.1-0.6-0.1c-0.2-0.1-0.3-0.1-0.3-0.2c-0.1-0.1-0.1-0.2-0.1-0.3v-33c0-0.1,0-0.2,0.1-0.3c0.1-0.1,0.2-0.2,0.3-0.2
			c0.2-0.1,0.4-0.1,0.6-0.1c0.3,0,0.6,0,1,0s0.7,0,1,0s0.5,0.1,0.6,0.1c0.1,0.1,0.3,0.1,0.3,0.2c0.1,0.1,0.1,0.2,0.1,0.3V430.6z"/>
		<path d="M811.6,430.6c0,0.1,0,0.2-0.1,0.3c-0.1,0.1-0.2,0.2-0.3,0.2c-0.1,0.1-0.4,0.1-0.6,0.1c-0.3,0-0.6,0-1,0s-0.7,0-1,0
			s-0.5-0.1-0.6-0.1c-0.2-0.1-0.3-0.1-0.3-0.2c-0.1-0.1-0.1-0.2-0.1-0.3v-33c0-0.1,0-0.2,0.1-0.3c0.1-0.1,0.2-0.2,0.3-0.2
			c0.2-0.1,0.4-0.1,0.6-0.1c0.3,0,0.6,0,1,0s0.7,0,1,0s0.5,0.1,0.6,0.1c0.1,0.1,0.3,0.1,0.3,0.2c0.1,0.1,0.1,0.2,0.1,0.3V430.6z"/>
		<path d="M823.7,400.9c0,1-0.2,1.6-0.5,2c-0.4,0.3-1,0.5-2,0.5s-1.6-0.2-2-0.5s-0.5-1-0.5-1.9c0-1,0.2-1.6,0.5-2
			c0.4-0.3,1-0.5,2-0.5s1.6,0.2,2,0.5C823.5,399.3,823.7,399.9,823.7,400.9z M823.2,430.6c0,0.1,0,0.2-0.1,0.3
			c-0.1,0.1-0.2,0.2-0.3,0.2c-0.1,0.1-0.4,0.1-0.6,0.1c-0.3,0-0.6,0-1,0s-0.7,0-1,0s-0.5-0.1-0.6-0.1c-0.2-0.1-0.3-0.1-0.3-0.2
			c-0.1-0.1-0.1-0.2-0.1-0.3v-22.2c0-0.1,0-0.2,0.1-0.3c0.1-0.1,0.2-0.2,0.3-0.2c0.2-0.1,0.4-0.1,0.6-0.1c0.3,0,0.6,0,1,0s0.7,0,1,0
			s0.5,0.1,0.6,0.1c0.1,0.1,0.3,0.1,0.3,0.2c0.1,0.1,0.1,0.2,0.1,0.3V430.6z"/>
		<path d="M849.9,430.6c0,0.1,0,0.2-0.1,0.3c-0.1,0.1-0.2,0.2-0.3,0.2c-0.1,0.1-0.4,0.1-0.6,0.1c-0.3,0-0.6,0-1,0s-0.7,0-1,0
			s-0.5-0.1-0.6-0.1c-0.1-0.1-0.3-0.1-0.3-0.2c-0.1-0.1-0.1-0.2-0.1-0.3v-13c0-1.3-0.1-2.3-0.3-3.1c-0.2-0.8-0.5-1.4-0.9-2
			s-0.9-1-1.5-1.3s-1.3-0.4-2.1-0.4c-1,0-2,0.4-3.1,1.1c-1,0.7-2.1,1.8-3.2,3.2v15.5c0,0.1,0,0.2-0.1,0.3c-0.1,0.1-0.2,0.2-0.3,0.2
			c-0.1,0.1-0.4,0.1-0.6,0.1c-0.3,0-0.6,0-1,0s-0.7,0-1,0s-0.5-0.1-0.6-0.1c-0.2-0.1-0.3-0.1-0.3-0.2c-0.1-0.1-0.1-0.2-0.1-0.3
			v-22.2c0-0.1,0-0.2,0.1-0.3s0.1-0.2,0.3-0.2c0.1-0.1,0.3-0.1,0.6-0.1c0.2,0,0.5,0,0.9,0s0.7,0,0.9,0s0.4,0.1,0.6,0.1
			c0.1,0.1,0.2,0.2,0.3,0.2s0.1,0.2,0.1,0.3v2.9c1.3-1.4,2.5-2.4,3.7-3.1c1.2-0.6,2.5-1,3.8-1c1.5,0,2.7,0.3,3.7,0.8s1.8,1.2,2.5,2
			c0.6,0.8,1.1,1.8,1.3,3c0.3,1.1,0.4,2.5,0.4,4.1v13.5H849.9z"/>
		<path d="M875.9,409.4c0,0.6-0.1,1-0.2,1.2c-0.2,0.3-0.4,0.4-0.6,0.4h-3.2c0.6,0.6,1,1.2,1.2,2s0.3,1.5,0.3,2.2
			c0,1.3-0.2,2.4-0.6,3.4c-0.4,1-1,1.8-1.8,2.5s-1.7,1.2-2.7,1.6c-1.1,0.4-2.2,0.5-3.5,0.5c-0.9,0-1.8-0.1-2.6-0.4
			c-0.8-0.2-1.4-0.5-1.9-0.9c-0.3,0.3-0.5,0.6-0.7,1s-0.3,0.8-0.3,1.3c0,0.6,0.3,1.1,0.8,1.4s1.2,0.6,2.1,0.6l5.8,0.2
			c1.1,0,2.1,0.2,3,0.5s1.7,0.7,2.4,1.2s1.2,1.1,1.6,1.9c0.4,0.7,0.6,1.6,0.6,2.6s-0.2,2-0.6,2.9c-0.4,0.9-1.1,1.7-2,2.4
			s-2,1.3-3.4,1.7c-1.4,0.4-3,0.6-4.8,0.6s-3.3-0.2-4.6-0.5s-2.3-0.7-3.1-1.2s-1.4-1.2-1.8-1.9c-0.4-0.7-0.5-1.5-0.5-2.4
			c0-0.5,0.1-1.1,0.2-1.6c0.1-0.5,0.3-1,0.6-1.5s0.6-0.9,1-1.3s0.9-0.8,1.4-1.2c-0.8-0.4-1.4-0.9-1.8-1.6c-0.4-0.6-0.6-1.3-0.6-2
			c0-1,0.2-1.9,0.6-2.7c0.4-0.8,0.9-1.5,1.5-2.1c-0.5-0.6-0.9-1.3-1.2-2.1s-0.4-1.7-0.4-2.8c0-1.3,0.2-2.4,0.6-3.4
			c0.4-1,1-1.9,1.8-2.5s1.7-1.2,2.7-1.6c1.1-0.4,2.2-0.6,3.5-0.6c0.7,0,1.3,0,1.9,0.1c0.6,0.1,1.1,0.2,1.6,0.3h6.7
			c0.3,0,0.5,0.1,0.6,0.4C875.8,408.4,875.9,408.8,875.9,409.4z M871.6,432.9c0-1-0.4-1.7-1.2-2.2s-1.8-0.8-3.2-0.8l-5.8-0.2
			c-0.5,0.4-1,0.8-1.3,1.2s-0.6,0.7-0.8,1.1c-0.2,0.3-0.3,0.7-0.4,1c-0.1,0.3-0.1,0.7-0.1,1c0,1.1,0.5,1.9,1.6,2.4
			c1.1,0.6,2.6,0.8,4.5,0.8c1.2,0,2.3-0.1,3.1-0.4c0.8-0.2,1.5-0.6,2-1s0.9-0.8,1.1-1.4C871.5,434,871.6,433.4,871.6,432.9z
			 M869.5,415.3c0-1.5-0.4-2.7-1.2-3.5s-2-1.3-3.5-1.3c-0.8,0-1.5,0.1-2.1,0.4s-1.1,0.6-1.5,1.1s-0.7,1-0.9,1.6s-0.3,1.2-0.3,1.9
			c0,1.5,0.4,2.6,1.2,3.5c0.8,0.8,2,1.3,3.5,1.3c0.8,0,1.5-0.1,2.1-0.4s1.1-0.6,1.5-1.1s0.7-1,0.9-1.6
			C869.5,416.5,869.5,415.9,869.5,415.3z"/>
	</g>
</g>
</svg>
