<?xml version="1.0" encoding="utf-8"?>
<!-- Generator: Adobe Illustrator 19.1.0, SVG Export Plug-In . SVG Version: 6.00 Build 0)  -->
<svg version="1.1" id="Layer_1" xmlns="http://www.w3.org/2000/svg" xmlns:xlink="http://www.w3.org/1999/xlink" x="0px" y="0px"
	 viewBox="92 -6.1 1144.8 572.1" style="enable-background:new 92 -6.1 1144.8 572.1;" xml:space="preserve">
<style type="text/css">
	.st0{fill:url(#SVGID_1_);}
	.st1{display:none;}
	.st2{display:inline;fill:url(#SVGID_2_);}
	.st3{display:inline;fill:#64297C;}
	.st4{opacity:0.75;}
</style>
<g id="Layer_2">
</g>
<g id="Layer_1_1_">
	<linearGradient id="SVGID_1_" gradientUnits="userSpaceOnUse" x1="664.4116" y1="15.9" x2="664.4116" y2="562.9">
		<stop  offset="0" style="stop-color:#B3F4ED"/>
		<stop  offset="0.3153" style="stop-color:#B0DCE8"/>
		<stop  offset="1" style="stop-color:#69A6C9"/>
	</linearGradient>
	<path class="st0" d="M1129.9,376.1c-51.1-24.5-108.1-14.7-146.3,21.5c-31.1,29.4-52.1,66.4-77.9,99.8c-23.2,30.1-54.6,49.8-87.7,66
		c-23.9,11.7-40.7-9.7-57.3-21.1c-33.8-23.2-52.8-56.8-58.1-98c-4.4-34.3,22.2-66.7,56.4-67.4c6.9-0.1,13.8,0,21.7,0
		c-34.6-25.7-112.9-12.9-141.1,16.6c-30,31.4-53.6,67.2-79.2,101.7c-23.3,31.4-55.3,51.1-88.9,68c-23.9,12-40.8-9.3-57.3-20.8
		c-31.3-21.7-51-52.2-58-90.8c-7.2-39.7,19.7-74.3,60-74.7c6.1-0.1,12.1,0,20.1,0c-33.5-22-108.8-17-141.3,14.8
		c-32.4,31.6-55.3,69.5-82.3,104.7c-26.8,35-31.7,36.8-59.3,3.9C72,403.4,71.2,273,153.1,175.1C209,108.3,281.9,80,367.8,86.2
		c27.2,2,54.9,6.4,80.1,18.5c10.4,5,16.2,3.5,22.7-6.1C516.7,31.5,584.2,1.3,662-6.1c105.7-10.1,216.1,69.1,244.9,172
		c7.7,27.5,8.7,27.8,35,18.1c106.8-39.4,222.4-2.2,272.8,101.6c44.5,91.8,21.5,203.4-66,266.5c-5.3,3.8-10.5,5.9-17.1,4.5
		c-41.1-9.1-91-89-81.3-130.3c7.8-33,27.8-48.8,62.4-49.4C1117.7,376.9,1122.8,376.5,1129.9,376.1"/>
</g>
<g id="Layer_4">
	<g class="st1">
		
			<linearGradient id="SVGID_2_" gradientUnits="userSpaceOnUse" x1="1839.5756" y1="482.6524" x2="1839.5756" y2="68.4786" gradientTransform="matrix(1 0 0 -1 0 559.8)">
			<stop  offset="0" style="stop-color:#FFFFFF"/>
			<stop  offset="1" style="stop-color:#FFFFFF;stop-opacity:0.5"/>
		</linearGradient>
		<path class="st2" d="M2217.4,339c-41.4-19.8-87.7-11.9-118.7,17.4c-25.3,23.9-42.3,53.8-63.1,80.9c-18.8,24.4-44.3,40.4-71.2,53.5
			c-19.4,9.5-33-7.8-46.5-17.1c-27.4-18.8-42.8-46-47.1-79.5c-3.6-27.8,18-54.1,45.7-54.6c5.6-0.1,11.2,0,17.6,0
			c-28-20.8-91.6-10.5-114.5,13.4c-24.3,25.5-43.5,54.5-64.3,82.5c-18.9,25.4-44.8,41.5-72.1,55.2c-19.4,9.8-33.1-7.6-46.5-16.8
			c-25.4-17.6-41.4-42.4-47-73.7c-5.8-32.2,16-60.2,48.6-60.6c4.9-0.1,9.8,0,16.3,0c-27.1-17.9-88.1-13.8-114.5,11.9
			c-26.2,25.6-44.9,56.4-66.8,84.9c-21.7,28.4-25.7,29.8-48.1,3.2c-66-78.6-66.7-184.4-0.3-263.8c45.3-54.2,104.4-77.2,174.2-72.1
			c22.1,1.6,44.5,5.2,65,15c8.4,4,13.1,2.8,18.4-4.9c37.4-54.4,92.1-78.9,155.2-84.9c85.7-8.2,175.2,56.1,198.6,139.5
			c6.3,22.3,7.1,22.5,28.3,14.7c86.6-32,180.4-1.8,221.2,82.4c36.1,74.4,17.5,164.9-53.5,216.2c-4.3,3.1-8.5,4.8-13.9,3.6
			c-33.3-7.3-73.8-72.2-65.9-105.7c6.3-26.8,22.5-39.6,50.6-40C2207.5,339.6,2211.6,339.3,2217.4,339"/>
	</g>
	<g class="st1">
		<path class="st3" d="M2304,348.6h-132.4c-9.2,6.6-15.4,16.9-18.7,31.1c-3,12.5,0.8,29.3,8.5,46h121.5
			C2296,401.9,2303.1,375.5,2304,348.6z"/>
		<path class="st3" d="M1380,348.6c5.8,26.9,17.3,53,34.5,77h67.1c18.5-25.3,35.7-51.7,58.6-74c1.1-1,2.2-2,3.4-3H1380z"/>
		<path class="st3" d="M1819.7,353.1c1.5-1.6,3.1-3.1,5-4.5h-215c-15.5,10.8-23.7,30.3-19.9,51.6c1.6,9,4.1,17.5,7.4,25.4h165.5
			C1780.8,400.8,1798.2,375.6,1819.7,353.1z"/>
		<path class="st3" d="M2098.7,356.5c3-2.8,6.1-5.4,9.3-7.8h-217.4c-13.8,10.1-22.1,27.6-19.8,45.7c1.4,11.2,4.1,21.6,8,31.3h165.4
			C2061.5,401.9,2077.1,376.9,2098.7,356.5z"/>
	</g>
</g>
<g id="Layer_3">
</g>
<g id="Layer_5">
</g>
<g id="Layer_5_copy" class="st4">
</g>
<g id="Layer_8">
</g>
<g id="Layer_7">
</g>
</svg>
